<svg width="480" height="380" viewBox="0 0 480 380" fill="none" xmlns="http://www.w3.org/2000/svg">
<g filter="url(#filter0_d_1_610)">
<rect x="25" y="25" width="430" height="330" rx="10" fill="white"/>
</g>
<path d="M87.1577 242.545H91.8963V253.727C91.8963 255.057 91.5781 256.207 90.9418 257.179C90.3111 258.145 89.4304 258.892 88.2997 259.42C87.169 259.943 85.8565 260.205 84.3622 260.205C82.8565 260.205 81.5384 259.943 80.4077 259.42C79.277 258.892 78.3963 258.145 77.7656 257.179C77.1406 256.207 76.8281 255.057 76.8281 253.727V242.545H81.5668V253.318C81.5668 253.858 81.6861 254.341 81.9247 254.767C82.1634 255.187 82.4929 255.517 82.9134 255.756C83.3395 255.994 83.8224 256.114 84.3622 256.114C84.9077 256.114 85.3906 255.994 85.8111 255.756C86.2315 255.517 86.5611 255.187 86.7997 254.767C87.0384 254.341 87.1577 253.858 87.1577 253.318V242.545ZM97.0803 264.909C96.5405 264.909 96.0263 264.866 95.5376 264.781C95.049 264.702 94.62 264.591 94.2507 264.449L95.2734 261.108C95.6598 261.244 96.0121 261.332 96.3303 261.372C96.6541 261.412 96.9297 261.389 97.157 261.304C97.3899 261.219 97.5575 261.057 97.6598 260.818L97.7621 260.58L93.1598 246.909H98.0689L100.183 255.977H100.319L102.467 246.909H107.41L102.637 261.091C102.398 261.812 102.052 262.46 101.597 263.034C101.148 263.614 100.558 264.071 99.8246 264.406C99.0916 264.741 98.1768 264.909 97.0803 264.909ZM112.496 257.614L112.428 258.568C112.371 259.386 112.234 260.17 112.018 260.92C111.808 261.67 111.584 262.335 111.345 262.915C111.112 263.494 110.928 263.943 110.791 264.261H107.893C107.984 263.943 108.112 263.483 108.277 262.881C108.447 262.284 108.601 261.608 108.737 260.852C108.879 260.102 108.95 259.341 108.95 258.568V257.614H112.496ZM122.638 260.205C121.803 260.205 121.064 260.068 120.422 259.795C119.786 259.517 119.286 259.097 118.922 258.534C118.558 257.972 118.376 257.256 118.376 256.386C118.376 255.67 118.499 255.06 118.743 254.554C118.987 254.043 119.328 253.625 119.766 253.301C120.203 252.977 120.712 252.73 121.291 252.56C121.876 252.389 122.507 252.278 123.183 252.227C123.916 252.17 124.504 252.102 124.947 252.023C125.396 251.937 125.72 251.821 125.919 251.673C126.118 251.52 126.217 251.318 126.217 251.068V251.034C126.217 250.693 126.087 250.432 125.825 250.25C125.564 250.068 125.229 249.977 124.82 249.977C124.371 249.977 124.004 250.077 123.72 250.276C123.442 250.469 123.274 250.767 123.217 251.17H118.888C118.945 250.375 119.197 249.642 119.646 248.972C120.101 248.295 120.763 247.756 121.632 247.352C122.501 246.943 123.587 246.739 124.888 246.739C125.825 246.739 126.666 246.849 127.411 247.071C128.155 247.287 128.788 247.591 129.311 247.983C129.834 248.369 130.232 248.824 130.504 249.347C130.783 249.864 130.922 250.426 130.922 251.034V260H126.524V258.159H126.422C126.161 258.648 125.842 259.043 125.467 259.344C125.098 259.645 124.675 259.864 124.197 260C123.726 260.136 123.206 260.205 122.638 260.205ZM124.172 257.239C124.53 257.239 124.865 257.165 125.178 257.017C125.496 256.869 125.754 256.656 125.953 256.378C126.152 256.099 126.251 255.761 126.251 255.364V254.273C126.126 254.324 125.993 254.372 125.851 254.418C125.714 254.463 125.567 254.506 125.408 254.545C125.254 254.585 125.089 254.622 124.913 254.656C124.743 254.69 124.564 254.722 124.376 254.75C124.013 254.807 123.714 254.901 123.482 255.031C123.254 255.156 123.084 255.312 122.97 255.5C122.862 255.682 122.808 255.886 122.808 256.114C122.808 256.477 122.936 256.756 123.192 256.949C123.447 257.142 123.774 257.239 124.172 257.239ZM137.874 242.545V260H133.17V242.545H137.874ZM146.578 265.182C145.266 265.182 144.141 264.994 143.203 264.619C142.271 264.25 141.547 263.739 141.03 263.085C140.518 262.438 140.232 261.693 140.169 260.852H144.703C144.749 261.131 144.862 261.355 145.044 261.526C145.226 261.696 145.459 261.818 145.743 261.892C146.033 261.972 146.357 262.011 146.714 262.011C147.322 262.011 147.825 261.864 148.223 261.568C148.626 261.273 148.828 260.739 148.828 259.966V257.75H148.692C148.521 258.193 148.26 258.571 147.908 258.884C147.555 259.19 147.132 259.426 146.638 259.591C146.143 259.75 145.601 259.83 145.01 259.83C144.078 259.83 143.22 259.614 142.436 259.182C141.658 258.75 141.033 258.065 140.561 257.128C140.095 256.19 139.862 254.966 139.862 253.455C139.862 251.875 140.107 250.591 140.595 249.602C141.089 248.614 141.726 247.889 142.504 247.429C143.288 246.969 144.112 246.739 144.976 246.739C145.624 246.739 146.192 246.852 146.68 247.08C147.169 247.301 147.578 247.599 147.908 247.974C148.237 248.344 148.487 248.75 148.658 249.193H148.76V246.909H153.464V259.966C153.464 261.074 153.178 262.014 152.604 262.787C152.036 263.565 151.234 264.159 150.2 264.568C149.166 264.977 147.959 265.182 146.578 265.182ZM146.749 256.489C147.18 256.489 147.55 256.369 147.857 256.131C148.169 255.886 148.408 255.54 148.572 255.091C148.743 254.636 148.828 254.091 148.828 253.455C148.828 252.807 148.743 252.253 148.572 251.793C148.408 251.327 148.169 250.972 147.857 250.727C147.55 250.477 147.18 250.352 146.749 250.352C146.317 250.352 145.947 250.477 145.641 250.727C145.339 250.972 145.107 251.327 144.942 251.793C144.783 252.253 144.703 252.807 144.703 253.455C144.703 254.102 144.783 254.653 144.942 255.108C145.107 255.557 145.339 255.901 145.641 256.139C145.947 256.372 146.317 256.489 146.749 256.489ZM162.164 260.239C160.744 260.239 159.528 259.957 158.516 259.395C157.505 258.827 156.729 258.037 156.19 257.026C155.65 256.009 155.38 254.83 155.38 253.489C155.38 252.148 155.65 250.972 156.19 249.96C156.729 248.943 157.505 248.153 158.516 247.591C159.528 247.023 160.744 246.739 162.164 246.739C163.585 246.739 164.8 247.023 165.812 247.591C166.823 248.153 167.599 248.943 168.138 249.96C168.678 250.972 168.948 252.148 168.948 253.489C168.948 254.83 168.678 256.009 168.138 257.026C167.599 258.037 166.823 258.827 165.812 259.395C164.8 259.957 163.585 260.239 162.164 260.239ZM162.198 256.761C162.596 256.761 162.94 256.628 163.229 256.361C163.519 256.094 163.744 255.713 163.903 255.219C164.062 254.724 164.141 254.136 164.141 253.455C164.141 252.767 164.062 252.179 163.903 251.69C163.744 251.196 163.519 250.815 163.229 250.548C162.94 250.281 162.596 250.148 162.198 250.148C161.778 250.148 161.417 250.281 161.116 250.548C160.815 250.815 160.585 251.196 160.425 251.69C160.266 252.179 160.187 252.767 160.187 253.455C160.187 254.136 160.266 254.724 160.425 255.219C160.585 255.713 160.815 256.094 161.116 256.361C161.417 256.628 161.778 256.761 162.198 256.761ZM187.604 251.17H183.275C183.252 250.903 183.158 250.673 182.994 250.48C182.829 250.287 182.616 250.139 182.354 250.037C182.099 249.929 181.815 249.875 181.502 249.875C181.099 249.875 180.752 249.949 180.462 250.097C180.173 250.244 180.031 250.455 180.036 250.727C180.031 250.92 180.113 251.099 180.283 251.264C180.46 251.429 180.798 251.557 181.298 251.648L183.957 252.125C185.298 252.369 186.295 252.781 186.948 253.361C187.607 253.935 187.94 254.705 187.945 255.67C187.94 256.602 187.661 257.412 187.11 258.099C186.565 258.781 185.817 259.31 184.869 259.685C183.925 260.054 182.849 260.239 181.638 260.239C179.638 260.239 178.073 259.83 176.942 259.011C175.817 258.193 175.19 257.114 175.059 255.773H179.729C179.792 256.187 179.996 256.509 180.343 256.736C180.695 256.957 181.138 257.068 181.673 257.068C182.104 257.068 182.46 256.994 182.738 256.847C183.022 256.699 183.167 256.489 183.173 256.216C183.167 255.966 183.042 255.767 182.798 255.619C182.559 255.472 182.184 255.352 181.673 255.261L179.354 254.852C178.019 254.619 177.019 254.176 176.354 253.523C175.69 252.869 175.36 252.028 175.366 251C175.36 250.091 175.599 249.321 176.082 248.69C176.57 248.054 177.266 247.571 178.17 247.241C179.079 246.906 180.156 246.739 181.4 246.739C183.292 246.739 184.783 247.131 185.874 247.915C186.971 248.699 187.548 249.784 187.604 251.17ZM193.396 260.205C192.56 260.205 191.822 260.068 191.18 259.795C190.543 259.517 190.043 259.097 189.68 258.534C189.316 257.972 189.134 257.256 189.134 256.386C189.134 255.67 189.256 255.06 189.501 254.554C189.745 254.043 190.086 253.625 190.523 253.301C190.961 252.977 191.469 252.73 192.049 252.56C192.634 252.389 193.265 252.278 193.941 252.227C194.674 252.17 195.262 252.102 195.705 252.023C196.154 251.937 196.478 251.821 196.677 251.673C196.876 251.52 196.975 251.318 196.975 251.068V251.034C196.975 250.693 196.844 250.432 196.583 250.25C196.322 250.068 195.987 249.977 195.577 249.977C195.129 249.977 194.762 250.077 194.478 250.276C194.2 250.469 194.032 250.767 193.975 251.17H189.646C189.702 250.375 189.955 249.642 190.404 248.972C190.859 248.295 191.521 247.756 192.39 247.352C193.259 246.943 194.344 246.739 195.646 246.739C196.583 246.739 197.424 246.849 198.168 247.071C198.913 247.287 199.546 247.591 200.069 247.983C200.592 248.369 200.989 248.824 201.262 249.347C201.54 249.864 201.68 250.426 201.68 251.034V260H197.282V258.159H197.18C196.918 258.648 196.6 259.043 196.225 259.344C195.856 259.645 195.433 259.864 194.955 260C194.484 260.136 193.964 260.205 193.396 260.205ZM194.93 257.239C195.288 257.239 195.623 257.165 195.935 257.017C196.254 256.869 196.512 256.656 196.711 256.378C196.91 256.099 197.009 255.761 197.009 255.364V254.273C196.884 254.324 196.751 254.372 196.609 254.418C196.472 254.463 196.325 254.506 196.165 254.545C196.012 254.585 195.847 254.622 195.671 254.656C195.501 254.69 195.322 254.722 195.134 254.75C194.771 254.807 194.472 254.901 194.239 255.031C194.012 255.156 193.842 255.312 193.728 255.5C193.62 255.682 193.566 255.886 193.566 256.114C193.566 256.477 193.694 256.756 193.95 256.949C194.205 257.142 194.532 257.239 194.93 257.239ZM208.632 242.545V260H203.928V242.545H208.632ZM211.029 260V246.909H215.734V260H211.029ZM213.381 245.545C212.745 245.545 212.2 245.335 211.745 244.915C211.29 244.494 211.063 243.989 211.063 243.398C211.063 242.807 211.29 242.301 211.745 241.881C212.2 241.46 212.745 241.25 213.381 241.25C214.023 241.25 214.569 241.46 215.018 241.881C215.472 242.301 215.7 242.807 215.7 243.398C215.7 243.989 215.472 244.494 215.018 244.915C214.569 245.335 214.023 245.545 213.381 245.545ZM224.438 260.239C223.017 260.239 221.801 259.957 220.79 259.395C219.778 258.827 219.003 258.037 218.463 257.026C217.923 256.009 217.653 254.83 217.653 253.489C217.653 252.148 217.923 250.972 218.463 249.96C219.003 248.943 219.778 248.153 220.79 247.591C221.801 247.023 223.017 246.739 224.438 246.739C225.858 246.739 227.074 247.023 228.085 247.591C229.097 248.153 229.872 248.943 230.412 249.96C230.952 250.972 231.222 252.148 231.222 253.489C231.222 254.83 230.952 256.009 230.412 257.026C229.872 258.037 229.097 258.827 228.085 259.395C227.074 259.957 225.858 260.239 224.438 260.239ZM224.472 256.761C224.869 256.761 225.213 256.628 225.503 256.361C225.793 256.094 226.017 255.713 226.176 255.219C226.335 254.724 226.415 254.136 226.415 253.455C226.415 252.767 226.335 252.179 226.176 251.69C226.017 251.196 225.793 250.815 225.503 250.548C225.213 250.281 224.869 250.148 224.472 250.148C224.051 250.148 223.69 250.281 223.389 250.548C223.088 250.815 222.858 251.196 222.699 251.69C222.54 252.179 222.46 252.767 222.46 253.455C222.46 254.136 222.54 254.724 222.699 255.219C222.858 255.713 223.088 256.094 223.389 256.361C223.69 256.628 224.051 256.761 224.472 256.761ZM222.869 245.273L224.506 241.455H228.528L225.972 245.273H222.869ZM237.912 260V246.909H242.378V249.398H242.514C242.787 248.58 243.253 247.932 243.912 247.455C244.571 246.977 245.355 246.739 246.264 246.739C247.185 246.739 247.977 246.983 248.642 247.472C249.307 247.955 249.707 248.597 249.844 249.398H249.98C250.202 248.597 250.673 247.955 251.395 247.472C252.116 246.983 252.963 246.739 253.935 246.739C255.19 246.739 256.207 247.142 256.986 247.949C257.77 248.756 258.162 249.83 258.162 251.17V260H253.457V252.364C253.457 251.79 253.313 251.341 253.023 251.017C252.733 250.687 252.344 250.523 251.855 250.523C251.372 250.523 250.989 250.687 250.705 251.017C250.426 251.341 250.287 251.79 250.287 252.364V260H245.787V252.364C245.787 251.79 245.642 251.341 245.352 251.017C245.063 250.687 244.673 250.523 244.185 250.523C243.861 250.523 243.582 250.597 243.349 250.744C243.116 250.892 242.935 251.105 242.804 251.384C242.679 251.656 242.616 251.983 242.616 252.364V260H237.912ZM264.13 260.205C263.295 260.205 262.556 260.068 261.914 259.795C261.278 259.517 260.778 259.097 260.414 258.534C260.05 257.972 259.869 257.256 259.869 256.386C259.869 255.67 259.991 255.06 260.235 254.554C260.479 254.043 260.82 253.625 261.258 253.301C261.695 252.977 262.204 252.73 262.783 252.56C263.369 252.389 263.999 252.278 264.675 252.227C265.408 252.17 265.996 252.102 266.44 252.023C266.888 251.937 267.212 251.821 267.411 251.673C267.61 251.52 267.71 251.318 267.71 251.068V251.034C267.71 250.693 267.579 250.432 267.317 250.25C267.056 250.068 266.721 249.977 266.312 249.977C265.863 249.977 265.496 250.077 265.212 250.276C264.934 250.469 264.766 250.767 264.71 251.17H260.38C260.437 250.375 260.69 249.642 261.138 248.972C261.593 248.295 262.255 247.756 263.124 247.352C263.994 246.943 265.079 246.739 266.38 246.739C267.317 246.739 268.158 246.849 268.903 247.071C269.647 247.287 270.281 247.591 270.803 247.983C271.326 248.369 271.724 248.824 271.996 249.347C272.275 249.864 272.414 250.426 272.414 251.034V260H268.016V258.159H267.914C267.653 258.648 267.335 259.043 266.96 259.344C266.59 259.645 266.167 259.864 265.69 260C265.218 260.136 264.698 260.205 264.13 260.205ZM265.664 257.239C266.022 257.239 266.357 257.165 266.67 257.017C266.988 256.869 267.246 256.656 267.445 256.378C267.644 256.099 267.744 255.761 267.744 255.364V254.273C267.619 254.324 267.485 254.372 267.343 254.418C267.207 254.463 267.059 254.506 266.9 254.545C266.746 254.585 266.582 254.622 266.406 254.656C266.235 254.69 266.056 254.722 265.869 254.75C265.505 254.807 265.207 254.901 264.974 255.031C264.746 255.156 264.576 255.312 264.462 255.5C264.354 255.682 264.3 255.886 264.3 256.114C264.3 256.477 264.428 256.756 264.684 256.949C264.94 257.142 265.266 257.239 265.664 257.239ZM279.366 242.545V260H274.662V242.545H279.366ZM284.32 260.273C283.661 260.273 283.096 260.043 282.624 259.582C282.158 259.116 281.928 258.551 281.934 257.886C281.928 257.239 282.158 256.685 282.624 256.224C283.096 255.764 283.661 255.534 284.32 255.534C284.945 255.534 285.496 255.764 285.974 256.224C286.457 256.685 286.701 257.239 286.707 257.886C286.701 258.33 286.585 258.733 286.357 259.097C286.136 259.455 285.846 259.741 285.488 259.957C285.13 260.168 284.741 260.273 284.32 260.273ZM292.617 260V242.545H300.151C301.447 242.545 302.58 242.801 303.552 243.312C304.523 243.824 305.279 244.543 305.819 245.469C306.359 246.395 306.629 247.477 306.629 248.716C306.629 249.966 306.35 251.048 305.793 251.963C305.242 252.878 304.467 253.582 303.467 254.077C302.472 254.571 301.31 254.818 299.981 254.818H295.481V251.136H299.026C299.583 251.136 300.058 251.04 300.45 250.847C300.847 250.648 301.151 250.366 301.362 250.003C301.577 249.639 301.685 249.21 301.685 248.716C301.685 248.216 301.577 247.79 301.362 247.438C301.151 247.08 300.847 246.807 300.45 246.619C300.058 246.426 299.583 246.33 299.026 246.33H297.356V260H292.617ZM314.461 260.239C313.04 260.239 311.825 259.957 310.813 259.395C309.802 258.827 309.026 258.037 308.487 257.026C307.947 256.009 307.677 254.83 307.677 253.489C307.677 252.148 307.947 250.972 308.487 249.96C309.026 248.943 309.802 248.153 310.813 247.591C311.825 247.023 313.04 246.739 314.461 246.739C315.881 246.739 317.097 247.023 318.109 247.591C319.12 248.153 319.896 248.943 320.435 249.96C320.975 250.972 321.245 252.148 321.245 253.489C321.245 254.83 320.975 256.009 320.435 257.026C319.896 258.037 319.12 258.827 318.109 259.395C317.097 259.957 315.881 260.239 314.461 260.239ZM314.495 256.761C314.893 256.761 315.237 256.628 315.526 256.361C315.816 256.094 316.04 255.713 316.2 255.219C316.359 254.724 316.438 254.136 316.438 253.455C316.438 252.767 316.359 252.179 316.2 251.69C316.04 251.196 315.816 250.815 315.526 250.548C315.237 250.281 314.893 250.148 314.495 250.148C314.075 250.148 313.714 250.281 313.413 250.548C313.112 250.815 312.881 251.196 312.722 251.69C312.563 252.179 312.484 252.767 312.484 253.455C312.484 254.136 312.563 254.724 312.722 255.219C312.881 255.713 313.112 256.094 313.413 256.361C313.714 256.628 314.075 256.761 314.495 256.761ZM323.154 260V246.909H327.722V249.398H327.859C328.097 248.477 328.475 247.804 328.992 247.378C329.515 246.952 330.126 246.739 330.825 246.739C331.029 246.739 331.231 246.756 331.43 246.79C331.634 246.818 331.83 246.861 332.018 246.918V250.932C331.785 250.852 331.498 250.793 331.157 250.753C330.816 250.713 330.523 250.693 330.279 250.693C329.819 250.693 329.404 250.798 329.035 251.009C328.671 251.213 328.384 251.503 328.174 251.878C327.964 252.247 327.859 252.682 327.859 253.182V260H323.154ZM346.183 246.909V250.318H337.421V246.909H346.183ZM339.092 260V246.534C339.092 245.455 339.285 244.56 339.671 243.849C340.058 243.139 340.603 242.608 341.308 242.256C342.012 241.903 342.842 241.727 343.796 241.727C344.393 241.727 344.972 241.773 345.535 241.864C346.103 241.955 346.523 242.034 346.796 242.102L346.114 245.477C345.944 245.426 345.745 245.386 345.518 245.358C345.29 245.324 345.092 245.307 344.921 245.307C344.478 245.307 344.18 245.401 344.026 245.588C343.873 245.776 343.796 246.023 343.796 246.33V260H339.092ZM351.107 260.205C350.271 260.205 349.533 260.068 348.891 259.795C348.254 259.517 347.754 259.097 347.391 258.534C347.027 257.972 346.845 257.256 346.845 256.386C346.845 255.67 346.967 255.06 347.212 254.554C347.456 254.043 347.797 253.625 348.234 253.301C348.672 252.977 349.18 252.73 349.76 252.56C350.345 252.389 350.976 252.278 351.652 252.227C352.385 252.17 352.973 252.102 353.416 252.023C353.865 251.937 354.189 251.821 354.388 251.673C354.587 251.52 354.686 251.318 354.686 251.068V251.034C354.686 250.693 354.555 250.432 354.294 250.25C354.033 250.068 353.697 249.977 353.288 249.977C352.839 249.977 352.473 250.077 352.189 250.276C351.911 250.469 351.743 250.767 351.686 251.17H347.357C347.413 250.375 347.666 249.642 348.115 248.972C348.57 248.295 349.232 247.756 350.101 247.352C350.97 246.943 352.055 246.739 353.357 246.739C354.294 246.739 355.135 246.849 355.879 247.071C356.624 247.287 357.257 247.591 357.78 247.983C358.303 248.369 358.7 248.824 358.973 249.347C359.251 249.864 359.391 250.426 359.391 251.034V260H354.993V258.159H354.891C354.629 258.648 354.311 259.043 353.936 259.344C353.567 259.645 353.143 259.864 352.666 260C352.195 260.136 351.675 260.205 351.107 260.205ZM352.641 257.239C352.999 257.239 353.334 257.165 353.646 257.017C353.964 256.869 354.223 256.656 354.422 256.378C354.621 256.099 354.72 255.761 354.72 255.364V254.273C354.595 254.324 354.462 254.372 354.32 254.418C354.183 254.463 354.036 254.506 353.876 254.545C353.723 254.585 353.558 254.622 353.382 254.656C353.212 254.69 353.033 254.722 352.845 254.75C352.482 254.807 352.183 254.901 351.95 255.031C351.723 255.156 351.553 255.312 351.439 255.5C351.331 255.682 351.277 255.886 351.277 256.114C351.277 256.477 351.405 256.756 351.661 256.949C351.916 257.142 352.243 257.239 352.641 257.239ZM374.363 246.909L369.965 260H364.511L360.113 246.909H365.056L367.17 255.568H367.306L369.42 246.909H374.363ZM381.609 260.239C380.189 260.239 378.973 259.957 377.962 259.395C376.95 258.827 376.175 258.037 375.635 257.026C375.095 256.009 374.825 254.83 374.825 253.489C374.825 252.148 375.095 250.972 375.635 249.96C376.175 248.943 376.95 248.153 377.962 247.591C378.973 247.023 380.189 246.739 381.609 246.739C383.03 246.739 384.246 247.023 385.257 247.591C386.268 248.153 387.044 248.943 387.584 249.96C388.124 250.972 388.393 252.148 388.393 253.489C388.393 254.83 388.124 256.009 387.584 257.026C387.044 258.037 386.268 258.827 385.257 259.395C384.246 259.957 383.03 260.239 381.609 260.239ZM381.643 256.761C382.041 256.761 382.385 256.628 382.675 256.361C382.964 256.094 383.189 255.713 383.348 255.219C383.507 254.724 383.587 254.136 383.587 253.455C383.587 252.767 383.507 252.179 383.348 251.69C383.189 251.196 382.964 250.815 382.675 250.548C382.385 250.281 382.041 250.148 381.643 250.148C381.223 250.148 380.862 250.281 380.561 250.548C380.26 250.815 380.03 251.196 379.871 251.69C379.712 252.179 379.632 252.767 379.632 253.455C379.632 254.136 379.712 254.724 379.871 255.219C380.03 255.713 380.26 256.094 380.561 256.361C380.862 256.628 381.223 256.761 381.643 256.761ZM390.303 260V246.909H394.871V249.398H395.007C395.246 248.477 395.624 247.804 396.141 247.378C396.663 246.952 397.274 246.739 397.973 246.739C398.178 246.739 398.379 246.756 398.578 246.79C398.783 246.818 398.979 246.861 399.166 246.918V250.932C398.933 250.852 398.646 250.793 398.305 250.753C397.964 250.713 397.672 250.693 397.428 250.693C396.967 250.693 396.553 250.798 396.183 251.009C395.82 251.213 395.533 251.503 395.322 251.878C395.112 252.247 395.007 252.682 395.007 253.182V260H390.303ZM403.777 257.614L403.709 258.568C403.652 259.386 403.516 260.17 403.3 260.92C403.089 261.67 402.865 262.335 402.626 262.915C402.393 263.494 402.209 263.943 402.072 264.261H399.175C399.266 263.943 399.393 263.483 399.558 262.881C399.729 262.284 399.882 261.608 400.018 260.852C400.161 260.102 400.232 259.341 400.232 258.568V257.614H403.777ZM126.209 289V275.909H130.913V289H126.209ZM128.561 274.545C127.925 274.545 127.379 274.335 126.925 273.915C126.47 273.494 126.243 272.989 126.243 272.398C126.243 271.807 126.47 271.301 126.925 270.881C127.379 270.46 127.925 270.25 128.561 270.25C129.203 270.25 129.749 270.46 130.197 270.881C130.652 271.301 130.879 271.807 130.879 272.398C130.879 272.989 130.652 273.494 130.197 273.915C129.749 274.335 129.203 274.545 128.561 274.545ZM138.015 281.636V289H133.31V275.909H137.776V278.398H137.913C138.197 277.568 138.697 276.918 139.413 276.446C140.134 275.974 140.975 275.739 141.935 275.739C142.862 275.739 143.665 275.952 144.347 276.378C145.035 276.798 145.566 277.378 145.941 278.116C146.322 278.855 146.509 279.699 146.504 280.648V289H141.799V281.636C141.805 280.989 141.64 280.48 141.305 280.111C140.975 279.741 140.515 279.557 139.924 279.557C139.538 279.557 139.2 279.642 138.91 279.812C138.626 279.977 138.407 280.216 138.254 280.528C138.1 280.835 138.021 281.205 138.015 281.636ZM156.633 275.909V279.318H148.008V275.909H156.633ZM149.678 272.773H154.383V284.79C154.383 284.972 154.414 285.125 154.477 285.25C154.539 285.369 154.636 285.46 154.766 285.523C154.897 285.58 155.065 285.608 155.269 285.608C155.411 285.608 155.576 285.591 155.763 285.557C155.957 285.523 156.099 285.494 156.19 285.472L156.871 288.778C156.661 288.841 156.36 288.918 155.968 289.009C155.582 289.099 155.121 289.159 154.587 289.188C153.508 289.244 152.602 289.134 151.869 288.855C151.136 288.571 150.585 288.125 150.215 287.517C149.846 286.909 149.667 286.148 149.678 285.233V272.773ZM164.685 289.239C163.287 289.239 162.082 288.972 161.071 288.438C160.065 287.898 159.29 287.125 158.744 286.119C158.205 285.108 157.935 283.898 157.935 282.489C157.935 281.136 158.207 279.955 158.753 278.943C159.298 277.932 160.068 277.145 161.062 276.582C162.057 276.02 163.23 275.739 164.582 275.739C165.571 275.739 166.466 275.892 167.267 276.199C168.068 276.506 168.753 276.952 169.321 277.537C169.889 278.116 170.327 278.821 170.634 279.651C170.94 280.48 171.094 281.415 171.094 282.455V283.545H159.401V280.955H166.764C166.759 280.58 166.662 280.25 166.474 279.966C166.293 279.676 166.045 279.452 165.733 279.293C165.426 279.128 165.077 279.045 164.685 279.045C164.304 279.045 163.955 279.128 163.636 279.293C163.318 279.452 163.063 279.673 162.869 279.957C162.682 280.241 162.582 280.574 162.571 280.955V283.75C162.571 284.17 162.659 284.545 162.835 284.875C163.011 285.205 163.264 285.463 163.594 285.651C163.923 285.838 164.321 285.932 164.787 285.932C165.111 285.932 165.406 285.886 165.673 285.795C165.946 285.705 166.179 285.574 166.372 285.403C166.565 285.227 166.707 285.017 166.798 284.773H171.094C170.946 285.682 170.597 286.472 170.045 287.142C169.494 287.807 168.764 288.324 167.855 288.693C166.952 289.057 165.895 289.239 164.685 289.239ZM162.946 274.273L164.582 270.455H168.605L166.048 274.273H162.946ZM177.718 281.636V289H173.013V275.909H177.479V278.398H177.616C177.9 277.568 178.4 276.918 179.116 276.446C179.837 275.974 180.678 275.739 181.638 275.739C182.565 275.739 183.369 275.952 184.05 276.378C184.738 276.798 185.269 277.378 185.644 278.116C186.025 278.855 186.212 279.699 186.207 280.648V289H181.502V281.636C181.508 280.989 181.343 280.48 181.008 280.111C180.678 279.741 180.218 279.557 179.627 279.557C179.241 279.557 178.903 279.642 178.613 279.812C178.329 279.977 178.11 280.216 177.957 280.528C177.803 280.835 177.724 281.205 177.718 281.636ZM196.336 275.909V279.318H187.711V275.909H196.336ZM189.381 272.773H194.086V284.79C194.086 284.972 194.117 285.125 194.18 285.25C194.242 285.369 194.339 285.46 194.469 285.523C194.6 285.58 194.768 285.608 194.972 285.608C195.114 285.608 195.279 285.591 195.467 285.557C195.66 285.523 195.802 285.494 195.893 285.472L196.575 288.778C196.364 288.841 196.063 288.918 195.671 289.009C195.285 289.099 194.825 289.159 194.29 289.188C193.211 289.244 192.305 289.134 191.572 288.855C190.839 288.571 190.288 288.125 189.918 287.517C189.549 286.909 189.37 286.148 189.381 285.233V272.773ZM201.903 289.205C201.068 289.205 200.33 289.068 199.688 288.795C199.051 288.517 198.551 288.097 198.188 287.534C197.824 286.972 197.642 286.256 197.642 285.386C197.642 284.67 197.764 284.06 198.009 283.554C198.253 283.043 198.594 282.625 199.031 282.301C199.469 281.977 199.977 281.73 200.557 281.56C201.142 281.389 201.773 281.278 202.449 281.227C203.182 281.17 203.77 281.102 204.213 281.023C204.662 280.937 204.986 280.821 205.185 280.673C205.384 280.52 205.483 280.318 205.483 280.068V280.034C205.483 279.693 205.352 279.432 205.091 279.25C204.83 279.068 204.494 278.977 204.085 278.977C203.636 278.977 203.27 279.077 202.986 279.276C202.707 279.469 202.54 279.767 202.483 280.17H198.153C198.21 279.375 198.463 278.642 198.912 277.972C199.366 277.295 200.028 276.756 200.898 276.352C201.767 275.943 202.852 275.739 204.153 275.739C205.091 275.739 205.932 275.849 206.676 276.071C207.42 276.287 208.054 276.591 208.577 276.983C209.099 277.369 209.497 277.824 209.77 278.347C210.048 278.864 210.188 279.426 210.188 280.034V289H205.79V287.159H205.688C205.426 287.648 205.108 288.043 204.733 288.344C204.364 288.645 203.94 288.864 203.463 289C202.991 289.136 202.472 289.205 201.903 289.205ZM203.438 286.239C203.795 286.239 204.131 286.165 204.443 286.017C204.761 285.869 205.02 285.656 205.219 285.378C205.418 285.099 205.517 284.761 205.517 284.364V283.273C205.392 283.324 205.259 283.372 205.116 283.418C204.98 283.463 204.832 283.506 204.673 283.545C204.52 283.585 204.355 283.622 204.179 283.656C204.009 283.69 203.83 283.722 203.642 283.75C203.278 283.807 202.98 283.901 202.747 284.031C202.52 284.156 202.349 284.312 202.236 284.5C202.128 284.682 202.074 284.886 202.074 285.114C202.074 285.477 202.202 285.756 202.457 285.949C202.713 286.142 203.04 286.239 203.438 286.239ZM217.14 271.545V289H212.435V271.545H217.14ZM225.844 289.239C224.423 289.239 223.207 288.957 222.196 288.395C221.185 287.827 220.409 287.037 219.869 286.026C219.33 285.009 219.06 283.83 219.06 282.489C219.06 281.148 219.33 279.972 219.869 278.96C220.409 277.943 221.185 277.153 222.196 276.591C223.207 276.023 224.423 275.739 225.844 275.739C227.264 275.739 228.48 276.023 229.491 276.591C230.503 277.153 231.278 277.943 231.818 278.96C232.358 279.972 232.628 281.148 232.628 282.489C232.628 283.83 232.358 285.009 231.818 286.026C231.278 287.037 230.503 287.827 229.491 288.395C228.48 288.957 227.264 289.239 225.844 289.239ZM225.878 285.761C226.276 285.761 226.619 285.628 226.909 285.361C227.199 285.094 227.423 284.713 227.582 284.219C227.741 283.724 227.821 283.136 227.821 282.455C227.821 281.767 227.741 281.179 227.582 280.69C227.423 280.196 227.199 279.815 226.909 279.548C226.619 279.281 226.276 279.148 225.878 279.148C225.457 279.148 225.097 279.281 224.795 279.548C224.494 279.815 224.264 280.196 224.105 280.69C223.946 281.179 223.866 281.767 223.866 282.455C223.866 283.136 223.946 283.724 224.105 284.219C224.264 284.713 224.494 285.094 224.795 285.361C225.097 285.628 225.457 285.761 225.878 285.761ZM244.057 289.17C243.125 289.17 242.267 288.926 241.483 288.438C240.705 287.949 240.08 287.207 239.608 286.213C239.142 285.219 238.909 283.966 238.909 282.455C238.909 280.875 239.153 279.591 239.642 278.602C240.136 277.614 240.773 276.889 241.551 276.429C242.335 275.969 243.159 275.739 244.023 275.739C244.67 275.739 245.239 275.852 245.727 276.08C246.216 276.301 246.625 276.599 246.955 276.974C247.284 277.344 247.534 277.75 247.705 278.193H247.773V271.545H252.477V289H247.807V286.852H247.705C247.523 287.295 247.261 287.693 246.92 288.045C246.585 288.392 246.176 288.668 245.693 288.872C245.216 289.071 244.67 289.17 244.057 289.17ZM245.795 285.557C246.227 285.557 246.597 285.432 246.903 285.182C247.216 284.926 247.455 284.568 247.619 284.108C247.79 283.642 247.875 283.091 247.875 282.455C247.875 281.807 247.79 281.253 247.619 280.793C247.455 280.327 247.216 279.972 246.903 279.727C246.597 279.477 246.227 279.352 245.795 279.352C245.364 279.352 244.994 279.477 244.688 279.727C244.386 279.972 244.153 280.327 243.989 280.793C243.83 281.253 243.75 281.807 243.75 282.455C243.75 283.102 243.83 283.659 243.989 284.125C244.153 284.585 244.386 284.94 244.688 285.19C244.994 285.435 245.364 285.557 245.795 285.557ZM261.06 289.239C259.662 289.239 258.457 288.972 257.446 288.438C256.44 287.898 255.665 287.125 255.119 286.119C254.58 285.108 254.31 283.898 254.31 282.489C254.31 281.136 254.582 279.955 255.128 278.943C255.673 277.932 256.443 277.145 257.438 276.582C258.432 276.02 259.605 275.739 260.957 275.739C261.946 275.739 262.841 275.892 263.642 276.199C264.443 276.506 265.128 276.952 265.696 277.537C266.264 278.116 266.702 278.821 267.009 279.651C267.315 280.48 267.469 281.415 267.469 282.455V283.545H255.776V280.955H263.139C263.134 280.58 263.037 280.25 262.849 279.966C262.668 279.676 262.42 279.452 262.108 279.293C261.801 279.128 261.452 279.045 261.06 279.045C260.679 279.045 260.33 279.128 260.011 279.293C259.693 279.452 259.438 279.673 259.244 279.957C259.057 280.241 258.957 280.574 258.946 280.955V283.75C258.946 284.17 259.034 284.545 259.21 284.875C259.386 285.205 259.639 285.463 259.969 285.651C260.298 285.838 260.696 285.932 261.162 285.932C261.486 285.932 261.781 285.886 262.048 285.795C262.321 285.705 262.554 285.574 262.747 285.403C262.94 285.227 263.082 285.017 263.173 284.773H267.469C267.321 285.682 266.972 286.472 266.42 287.142C265.869 287.807 265.139 288.324 264.23 288.693C263.327 289.057 262.27 289.239 261.06 289.239ZM278.874 281.636V289H274.17V275.909H278.636V278.398H278.772C279.056 277.568 279.556 276.918 280.272 276.446C280.994 275.974 281.835 275.739 282.795 275.739C283.721 275.739 284.525 275.952 285.207 276.378C285.894 276.798 286.425 277.378 286.8 278.116C287.181 278.855 287.369 279.699 287.363 280.648V289H282.658V281.636C282.664 280.989 282.499 280.48 282.164 280.111C281.835 279.741 281.374 279.557 280.783 279.557C280.397 279.557 280.059 279.642 279.769 279.812C279.485 279.977 279.266 280.216 279.113 280.528C278.96 280.835 278.88 281.205 278.874 281.636ZM298.174 283.273V275.909H302.879V289H298.413V286.511H298.276C297.992 287.347 297.495 288 296.785 288.472C296.075 288.937 295.231 289.17 294.254 289.17C293.339 289.17 292.538 288.96 291.85 288.54C291.168 288.119 290.637 287.54 290.256 286.801C289.881 286.062 289.691 285.216 289.685 284.261V275.909H294.39V283.273C294.396 283.92 294.56 284.429 294.884 284.798C295.214 285.168 295.674 285.352 296.265 285.352C296.657 285.352 296.995 285.27 297.279 285.105C297.569 284.935 297.79 284.696 297.944 284.389C298.103 284.077 298.18 283.705 298.174 283.273ZM311.544 289.239C310.146 289.239 308.942 288.972 307.93 288.438C306.925 287.898 306.149 287.125 305.604 286.119C305.064 285.108 304.794 283.898 304.794 282.489C304.794 281.136 305.067 279.955 305.612 278.943C306.158 277.932 306.928 277.145 307.922 276.582C308.916 276.02 310.089 275.739 311.442 275.739C312.43 275.739 313.325 275.892 314.126 276.199C314.928 276.506 315.612 276.952 316.18 277.537C316.749 278.116 317.186 278.821 317.493 279.651C317.8 280.48 317.953 281.415 317.953 282.455V283.545H306.26V280.955H313.624C313.618 280.58 313.521 280.25 313.334 279.966C313.152 279.676 312.905 279.452 312.592 279.293C312.286 279.128 311.936 279.045 311.544 279.045C311.163 279.045 310.814 279.128 310.496 279.293C310.178 279.452 309.922 279.673 309.729 279.957C309.541 280.241 309.442 280.574 309.43 280.955V283.75C309.43 284.17 309.518 284.545 309.695 284.875C309.871 285.205 310.124 285.463 310.453 285.651C310.783 285.838 311.18 285.932 311.646 285.932C311.97 285.932 312.266 285.886 312.533 285.795C312.805 285.705 313.038 285.574 313.232 285.403C313.425 285.227 313.567 285.017 313.658 284.773H317.953C317.805 285.682 317.456 286.472 316.905 287.142C316.354 287.807 315.624 288.324 314.714 288.693C313.811 289.057 312.754 289.239 311.544 289.239ZM332.738 275.909L328.34 289H322.886L318.488 275.909H323.431L325.545 284.568H325.681L327.795 275.909H332.738ZM339.984 289.239C338.564 289.239 337.348 288.957 336.337 288.395C335.325 287.827 334.55 287.037 334.01 286.026C333.47 285.009 333.2 283.83 333.2 282.489C333.2 281.148 333.47 279.972 334.01 278.96C334.55 277.943 335.325 277.153 336.337 276.591C337.348 276.023 338.564 275.739 339.984 275.739C341.405 275.739 342.621 276.023 343.632 276.591C344.643 277.153 345.419 277.943 345.959 278.96C346.499 279.972 346.768 281.148 346.768 282.489C346.768 283.83 346.499 285.009 345.959 286.026C345.419 287.037 344.643 287.827 343.632 288.395C342.621 288.957 341.405 289.239 339.984 289.239ZM340.018 285.761C340.416 285.761 340.76 285.628 341.05 285.361C341.339 285.094 341.564 284.713 341.723 284.219C341.882 283.724 341.962 283.136 341.962 282.455C341.962 281.767 341.882 281.179 341.723 280.69C341.564 280.196 341.339 279.815 341.05 279.548C340.76 279.281 340.416 279.148 340.018 279.148C339.598 279.148 339.237 279.281 338.936 279.548C338.635 279.815 338.405 280.196 338.246 280.69C338.087 281.179 338.007 281.767 338.007 282.455C338.007 283.136 338.087 283.724 338.246 284.219C338.405 284.713 338.635 285.094 338.936 285.361C339.237 285.628 339.598 285.761 340.018 285.761ZM351.234 289.273C350.575 289.273 350.01 289.043 349.538 288.582C349.072 288.116 348.842 287.551 348.848 286.886C348.842 286.239 349.072 285.685 349.538 285.224C350.01 284.764 350.575 284.534 351.234 284.534C351.859 284.534 352.411 284.764 352.888 285.224C353.371 285.685 353.615 286.239 353.621 286.886C353.615 287.33 353.499 287.733 353.271 288.097C353.05 288.455 352.76 288.741 352.402 288.957C352.044 289.168 351.655 289.273 351.234 289.273Z" fill="black"/>
<path fill-rule="evenodd" clip-rule="evenodd" d="M240 202C271.48 202 297 176.48 297 145C297 113.52 271.48 88 240 88C208.52 88 183 113.52 183 145C183 176.48 208.52 202 240 202ZM240 205C273.137 205 300 178.137 300 145C300 111.863 273.137 85 240 85C206.863 85 180 111.863 180 145C180 178.137 206.863 205 240 205ZM235.05 145.707L216.666 127.322L222.322 121.665L240.707 140.05L258.385 122.373L264.042 128.029L246.364 145.707L263.335 162.678L257.678 168.334L240.707 151.364L223.029 169.042L217.373 163.385L235.05 145.707Z" fill="#FD0707"/>
<defs>
<filter id="filter0_d_1_610" x="0" y="0" width="480" height="380" filterUnits="userSpaceOnUse" color-interpolation-filters="sRGB">
<feFlood flood-opacity="0" result="BackgroundImageFix"/>
<feColorMatrix in="SourceAlpha" type="matrix" values="0 0 0 0 0 0 0 0 0 0 0 0 0 0 0 0 0 0 127 0" result="hardAlpha"/>
<feOffset/>
<feGaussianBlur stdDeviation="12.5"/>
<feColorMatrix type="matrix" values="0 0 0 0 0 0 0 0 0 0 0 0 0 0 0 0 0 0 0.15 0"/>
<feBlend mode="normal" in2="BackgroundImageFix" result="effect1_dropShadow_1_610"/>
<feBlend mode="normal" in="SourceGraphic" in2="effect1_dropShadow_1_610" result="shape"/>
</filter>
</defs>
</svg>
